<?xml version="1.0" standalone="no"?>
<!DOCTYPE svg PUBLIC "-//W3C//DTD SVG 20010904//EN"
 "http://www.w3.org/TR/2001/REC-SVG-20010904/DTD/svg10.dtd">
<svg version="1.0" xmlns="http://www.w3.org/2000/svg"
 width="520.000000pt" height="520.000000pt" viewBox="0 0 520.000000 520.000000"
 preserveAspectRatio="xMidYMid meet">

<g transform="translate(0.000000,520.000000) scale(0.100000,-0.100000)"
fill="#000000" stroke="none">
<path d="M2400 5194 c-518 -49 -962 -218 -1370 -522 -132 -99 -376 -338 -472
-462 -320 -416 -500 -871 -548 -1385 -46 -500 65 -1028 311 -1476 124 -225
253 -394 448 -589 406 -405 899 -651 1476 -736 167 -25 543 -25 710 0 453 66
849 231 1215 504 132 99 376 338 472 462 290 377 469 796 534 1255 26 177 26
539 0 710 -66 452 -231 849 -504 1215 -111 149 -353 391 -502 502 -365 272
-767 440 -1210 503 -110 16 -463 28 -560 19z m484 -139 c1247 -146 2186 -1201
2186 -2455 0 -1365 -1105 -2470 -2470 -2470 -1365 0 -2470 1105 -2470 2470 0
1162 804 2160 1943 2414 245 55 557 71 811 41z"/>
<path d="M2438 4709 c-347 -24 -713 -151 -1006 -346 -901 -602 -1205 -1771
-711 -2733 461 -898 1506 -1345 2477 -1058 948 279 1578 1182 1512 2166 -72
1061 -904 1895 -1968 1972 -149 11 -147 11 -304 -1z m292 -169 c373 -29 691
-143 1003 -360 121 -85 362 -325 449 -450 483 -686 483 -1574 0 -2260 -87
-125 -328 -365 -449 -450 -311 -216 -631 -331 -1000 -359 -363 -28 -769 63
-1082 242 -168 96 -271 176 -421 327 -289 288 -456 596 -535 985 -108 530 6
1059 325 1518 85 121 326 362 447 447 340 237 638 336 1108 369 11 0 81 -4
155 -9z"/>
<path d="M2435 4189 c-189 -20 -376 -74 -548 -160 -639 -318 -989 -1022 -855
-1719 125 -656 634 -1158 1293 -1276 138 -25 403 -25 540 0 674 123 1179 629
1302 1306 24 132 23 400 -1 535 -35 196 -125 428 -226 585 -328 507 -913 791
-1505 729z m365 -263 c342 -52 661 -245 870 -526 108 -146 181 -302 228 -487
25 -100 27 -123 27 -308 0 -184 -2 -209 -27 -306 -127 -500 -481 -860 -978
-992 -110 -29 -124 -31 -320 -31 -191 -1 -212 1 -313 26 -474 121 -826 453
-972 918 -79 254 -71 576 20 830 37 100 97 218 158 310 64 96 251 283 347 347
179 120 389 199 595 226 75 10 279 6 365 -7z"/>
<path d="M2985 2644 c-135 -306 -249 -563 -252 -571 -4 -9 16 -23 61 -43 36
-17 67 -30 69 -30 6 0 507 1126 507 1139 0 5 -72 38 -121 56 -13 5 -62 -98
-264 -551z"/>
<path d="M2159 2886 l-324 -204 -3 -39 -2 -38 272 -160 c149 -88 298 -175 329
-193 l58 -33 40 60 c23 33 41 62 41 64 0 2 -115 70 -255 153 -140 82 -254 151
-254 154 0 3 114 75 254 160 141 85 254 157 253 160 -11 23 -74 119 -79 120
-3 0 -151 -92 -330 -204z"/>
</g>
</svg>
